<?xml version="1.0" encoding="UTF-8"?>
<svg id="_图层_1" data-name="图层_1" xmlns="http://www.w3.org/2000/svg" version="1.1" viewBox="0 0 388.55 448.66">
  <!-- Generator: Adobe Illustrator 29.4.0, SVG Export Plug-In . SVG Version: 2.1.0 Build 152)  -->
  <defs>
    <style>
      .st0 {
        fill: #1d82d2;
      }

      .st1 {
        fill: #33a4ea;
      }

      .st2 {
        fill: #273d4a;
      }

      .st3 {
        fill: none;
        stroke-width: 5px;
      }

      .st3, .st4 {
        opacity: .8;
      }

      .st3, .st5 {
        stroke: #273d4a;
        stroke-miterlimit: 10;
      }

      .st6 {
        fill: #84d0f0;
      }

      .st7 {
        fill: #4dc3ff;
      }

      .st5 {
        fill: #fff;
        stroke-width: 3px;
      }
    </style>
  </defs>
  <g>
    <polygon class="st6" points="194.27 448.13 169.99 434.11 169.99 406.07 194.27 420.09 194.27 448.13"/>
    <polygon class="st7" points="194.27 420.54 169.99 406.52 169.99 378.47 194.27 392.49 194.27 420.54"/>
    <polygon class="st1" points="194.27 392.5 169.99 378.47 169.99 350.43 194.27 364.45 194.27 392.5"/>
    <polygon class="st7" points="194.27 364.44 169.99 350.42 169.99 322.38 194.27 336.4 194.27 364.44"/>
    <polygon class="st1" points="194.27 336.41 169.99 322.39 169.99 294.35 194.27 308.37 194.27 336.41"/>
    <polygon class="st0" points="194.27 308.43 169.99 294.41 169.99 266.37 194.27 280.39 194.27 308.43"/>
    <polygon class="st1" points="194.27 280.43 169.99 266.41 169.99 238.37 194.27 252.39 194.27 280.43"/>
    <polygon class="st6" points="194.27 252.35 169.99 238.33 169.99 210.29 194.27 224.31 194.27 252.35"/>
  </g>
  <polygon class="st7" points="194.27 224.33 169.99 210.31 194.27 196.29 218.56 210.31 194.27 224.33"/>
  <polygon class="st6" points="218.56 210.31 194.27 196.29 218.56 182.27 242.84 196.29 218.56 210.31"/>
  <polygon class="st7" points="242.84 196.29 218.56 182.27 242.84 168.25 267.13 182.27 242.84 196.29"/>
  <polygon class="st1" points="267.13 182.5 242.84 168.48 267.13 154.46 291.41 168.48 267.13 182.5"/>
  <polygon class="st7" points="291.41 168.48 267.13 154.46 291.41 140.44 315.7 154.46 291.41 168.48"/>
  <polygon class="st6" points="169.99 210.42 145.71 196.4 169.99 182.38 194.27 196.4 169.99 210.42"/>
  <polygon class="st1" points="194.27 196.4 169.99 182.38 194.27 168.36 218.56 182.38 194.27 196.4"/>
  <polygon class="st6" points="218.56 182.38 194.27 168.36 218.56 154.34 242.84 168.36 218.56 182.38"/>
  <polygon class="st6" points="242.84 168.6 218.56 154.58 242.84 140.55 267.13 154.58 242.84 168.6"/>
  <polygon class="st6" points="267.13 154.58 242.84 140.55 267.13 126.53 291.41 140.55 267.13 154.58"/>
  <polygon class="st6" points="145.71 196.29 121.42 182.27 145.71 168.25 169.99 182.27 145.71 196.29"/>
  <polygon class="st7" points="169.99 182.27 145.71 168.25 169.99 154.23 194.27 168.25 169.99 182.27"/>
  <polygon class="st1" points="194.27 168.25 169.99 154.23 194.27 140.21 218.56 154.23 194.27 168.25"/>
  <polygon class="st1" points="218.56 154.46 194.27 140.44 218.56 126.42 242.84 140.44 218.56 154.46"/>
  <polygon class="st1" points="242.84 140.44 218.56 126.42 242.84 112.4 267.13 126.42 242.84 140.44"/>
  <polygon class="st7" points="145.71 168.48 121.42 154.46 145.71 140.44 169.99 154.46 145.71 168.48"/>
  <polygon class="st7" points="169.99 154.46 145.71 140.44 169.99 126.42 194.27 140.44 169.99 154.46"/>
  <g>
    <polygon class="st6" points="169.99 434.3 145.71 420.28 145.71 392.24 169.99 406.26 169.99 434.3"/>
    <polygon class="st7" points="169.99 406.71 145.71 392.69 145.71 364.64 169.99 378.66 169.99 406.71"/>
    <polygon class="st7" points="169.99 378.67 145.71 364.64 145.71 336.6 169.99 350.62 169.99 378.67"/>
    <polygon class="st1" points="169.99 350.61 145.71 336.59 145.71 308.55 169.99 322.57 169.99 350.61"/>
    <polygon class="st1" points="169.99 322.58 145.71 308.56 145.71 280.52 169.99 294.54 169.99 322.58"/>
    <polygon class="st7" points="169.99 294.6 145.71 280.58 145.71 252.54 169.99 266.56 169.99 294.6"/>
    <polygon class="st7" points="169.99 266.6 145.71 252.58 145.71 224.54 169.99 238.56 169.99 266.6"/>
    <polygon class="st7" points="169.99 238.52 145.71 224.5 145.71 196.46 169.99 210.48 169.99 238.52"/>
  </g>
  <g>
    <polygon class="st7" points="145.71 420.47 121.42 406.45 121.42 378.41 145.71 392.43 145.71 420.47"/>
    <polygon class="st7" points="145.71 392.88 121.42 378.86 121.42 350.81 145.71 364.83 145.71 392.88"/>
    <polygon class="st1" points="145.71 364.84 121.42 350.82 121.42 322.77 145.71 336.79 145.71 364.84"/>
    <polygon class="st1" points="145.71 336.78 121.42 322.76 121.42 294.72 145.71 308.74 145.71 336.78"/>
    <polygon class="st7" points="145.71 308.75 121.42 294.73 121.42 266.69 145.71 280.71 145.71 308.75"/>
    <polygon class="st1" points="145.71 280.77 121.42 266.75 121.42 238.71 145.71 252.73 145.71 280.77"/>
    <polygon class="st1" points="145.71 252.77 121.42 238.75 121.42 210.71 145.71 224.73 145.71 252.77"/>
    <polygon class="st1" points="145.71 224.69 121.42 210.67 121.42 182.63 145.71 196.65 145.71 224.69"/>
  </g>
  <g>
    <polygon class="st7" points="121.42 406.33 97.14 392.31 97.14 364.26 121.42 378.29 121.42 406.33"/>
    <polygon class="st7" points="121.42 378.73 97.14 364.71 97.14 336.67 121.42 350.69 121.42 378.73"/>
    <polygon class="st6" points="121.42 350.69 97.14 336.67 97.14 308.63 121.42 322.65 121.42 350.69"/>
    <polygon class="st1" points="121.42 322.63 97.14 308.61 97.14 280.57 121.42 294.59 121.42 322.63"/>
    <polygon class="st7" points="121.42 294.6 97.14 280.58 97.14 252.54 121.42 266.56 121.42 294.6"/>
    <polygon class="st7" points="121.42 266.63 97.14 252.61 97.14 224.56 121.42 238.59 121.42 266.63"/>
    <polygon class="st7" points="121.42 238.63 97.14 224.6 97.14 196.56 121.42 210.58 121.42 238.63"/>
    <polygon class="st1" points="121.42 210.54 97.14 196.52 97.14 168.48 121.42 182.5 121.42 210.54"/>
  </g>
  <g>
    <polygon class="st6" points="97.14 364.9 72.85 350.88 72.85 322.84 97.14 336.86 97.14 364.9"/>
    <polygon class="st6" points="97.14 336.86 72.85 322.84 72.85 294.8 97.14 308.82 97.14 336.86"/>
    <polygon class="st7" points="97.14 308.8 72.85 294.78 72.85 266.74 97.14 280.76 97.14 308.8"/>
    <polygon class="st1" points="97.14 280.77 72.85 266.75 72.85 238.71 97.14 252.73 97.14 280.77"/>
    <polygon class="st7" points="97.14 252.8 72.85 238.78 72.85 210.73 97.14 224.76 97.14 252.8"/>
    <polygon class="st6" points="97.14 224.8 72.85 210.77 72.85 182.73 97.14 196.75 97.14 224.8"/>
  </g>
  <polygon class="st7" points="72.85 318.75 48.57 304.73 48.57 276.69 72.85 290.71 72.85 318.75"/>
  <polygon class="st7" points="46.96 276.07 22.67 262.05 22.67 234.01 46.96 248.03 46.96 276.07"/>
  <g>
    <polygon class="st0" points="196.77 225.77 386.05 116.49 386.05 335.05 196.77 444.33 196.77 225.77"/>
    <path class="st1" d="M383.55,120.82v212.78l-184.27,106.39v-212.78l184.27-106.39M388.55,112.16l-194.27,112.16v224.33l194.27-112.16V112.16h0Z"/>
  </g>
  <g class="st4">
    <path class="st2" d="M194.27,5.77l189.27,109.28v218.55l-189.27,109.28L5,333.61V115.05L194.27,5.77M194.27,0L0,112.16v224.33l194.27,112.16,194.27-112.16V112.16L194.27,0h0Z"/>
  </g>
  <path class="st3" d="M387.64,112.7"/>
  <path class="st3" d="M195.23,225.94"/>
  <path class="st3" d="M1.86,113.24"/>
  <path class="st3" d="M-139.51-101.92"/>
  <path class="st3" d="M54.77-214.08"/>
  <polygon class="st1" points="194.27 140.44 169.99 126.42 194.27 112.4 218.56 126.42 194.27 140.44"/>
  <polygon class="st6" points="145.71 140.09 121.42 126.07 145.71 112.05 169.99 126.07 145.71 140.09"/>
  <path class="st5" d="M55.63,325.73c-1.47-14.63-2.77-30.07-3.9-46.33-1.13-16.26-2.03-32.62-2.7-49.11-.67-16.48-1.2-32.29-1.6-47.43l25.4,13.22c-.13,11.66-.3,23.78-.5,36.34-.2,12.56-.4,24.86-.6,36.89-.2,12.03-.3,23.24-.3,33.64,1.47-4.04,3-8.44,4.6-13.21,1.6-4.77,3.2-9.53,4.8-14.3,1.6-4.77,3.07-9.11,4.4-13.01,1.33-3.91,2.4-6.98,3.2-9.23l20.2,10.52c1.33,6.43,3.53,15.71,6.6,27.84,3.07,12.13,6.27,25.2,9.6,39.2,0-10.27-.1-21.52-.3-33.76-.2-12.24-.37-24.76-.5-37.56-.13-12.8-.27-25.11-.4-36.91l25.4,13.22c-.53,14.79-1.13,30.08-1.8,45.86-.67,15.79-1.47,31.23-2.4,46.35-.93,15.11-2.13,29.22-3.6,42.33l-22.8-11.87c-3.33-11.07-6.63-22.92-9.9-35.55-3.27-12.63-6.57-24.69-9.9-36.15-2.13,5.02-4.37,10.49-6.7,16.41-2.33,5.92-4.64,11.86-6.9,17.81-2.27,5.95-4.47,11.51-6.6,16.66l-22.8-11.87Z"/>
  <path class="st5" d="M261.84,371.34v-138.6l84.8-44.14v22.8l-57.4,29.88v33.6l50.2-26.13v22.8l-50.2,26.13v59.4l-27.4,14.26Z"/>
</svg>